<svg width="7" height="4" viewBox="0 0 7 4" fill="none" xmlns="http://www.w3.org/2000/svg">
<path d="M6.05332 0.129417C5.97043 0.0465512 5.85802 0 5.74081 0C5.6236 0 5.51119 0.0465512 5.4283 0.129417L3.4012 2.15651C3.31716 2.23718 3.20519 2.28222 3.0887 2.28222C2.97221 2.28222 2.86023 2.23718 2.77619 2.15651L0.749094 0.129417C0.665728 0.0488996 0.554073 0.00434669 0.438178 0.00535379C0.322282 0.00636089 0.211418 0.0528474 0.129464 0.134801C0.0475105 0.216755 0.00102381 0.327619 1.67094e-05 0.443515C-0.000990394 0.559411 0.0435628 0.671066 0.12408 0.754431L2.15073 2.78153C2.27387 2.90469 2.42007 3.00238 2.58097 3.06904C2.74186 3.13569 2.91432 3.17 3.08848 3.17C3.26264 3.17 3.43509 3.13569 3.59599 3.06904C3.75689 3.00238 3.90308 2.90469 4.02622 2.78153L6.05332 0.754431C6.13618 0.671541 6.18273 0.559131 6.18273 0.441924C6.18273 0.324716 6.13618 0.212308 6.05332 0.129417Z" fill="black"/>
</svg>
