<svg width="9" height="18" viewBox="0 0 9 18" fill="none" xmlns="http://www.w3.org/2000/svg">
<path d="M6.24825 9.47563C6.47359 9.2447 6.60018 8.93153 6.60018 8.605C6.60018 8.27846 6.47359 7.9653 6.24825 7.73437L0.737216 2.08695C0.518267 1.85469 0.397115 1.54363 0.399854 1.22075C0.402592 0.897865 0.529003 0.589003 0.751859 0.360683C0.974713 0.132363 1.27618 0.00285231 1.59134 4.65517e-05C1.90649 -0.0027592 2.21011 0.121364 2.4368 0.345682L7.94424 5.9931C8.62024 6.68589 9 7.62539 9 8.605C9 9.58461 8.62024 10.5241 7.94424 11.2169L2.432 16.8643C2.2053 17.0886 1.90168 17.2128 1.58653 17.21C1.27137 17.2071 0.969905 17.0776 0.747049 16.8493C0.524195 16.621 0.397784 16.3121 0.395046 15.9893C0.392307 15.6664 0.513459 15.3553 0.732408 15.123L6.24825 9.47563Z" fill="white"/>
</svg>
