<svg width="14" height="14" viewBox="0 0 14 14" fill="none" xmlns="http://www.w3.org/2000/svg">
<path d="M13.3455 5.58433C13.236 5.4748 13.0874 5.41327 12.9325 5.41327C12.7776 5.41327 12.629 5.4748 12.5194 5.58433L6.15582 11.9754C5.88456 12.2467 5.56252 12.4619 5.20809 12.6087C4.85366 12.7556 4.47378 12.8312 4.09013 12.8312C3.31533 12.8312 2.57224 12.5235 2.02433 11.9757C1.47642 11.4278 1.16858 10.6848 1.16852 9.90999C1.16847 9.13519 1.4762 8.39209 2.02403 7.84419L8.18724 1.65586C8.51681 1.33154 8.96117 1.15059 9.42355 1.15242C9.88593 1.15425 10.3289 1.33871 10.6558 1.66562C10.9828 1.99254 11.1674 2.43542 11.1693 2.8978C11.1713 3.36018 10.9904 3.80459 10.6662 4.13423L4.50299 10.3226C4.39183 10.429 4.24385 10.4885 4.08993 10.4885C3.936 10.4885 3.78802 10.429 3.67686 10.3226C3.56734 10.213 3.50581 10.0644 3.50581 9.90949C3.50581 9.75457 3.56734 9.60599 3.67686 9.49643L9.1641 3.98408C9.27052 3.87389 9.32941 3.72631 9.32808 3.57312C9.32675 3.41993 9.2653 3.2734 9.15698 3.16507C9.04866 3.05675 8.90212 2.99531 8.74893 2.99397C8.59575 2.99264 8.44816 3.05153 8.33797 3.15796L2.85074 8.67031C2.68795 8.83307 2.55882 9.0263 2.47072 9.23897C2.38262 9.45164 2.33727 9.67959 2.33727 9.90978C2.33727 10.14 2.38262 10.3679 2.47072 10.5806C2.55882 10.7933 2.68795 10.9865 2.85074 11.1493C3.18471 11.468 3.62859 11.6458 4.09022 11.6458C4.55184 11.6458 4.99573 11.468 5.32969 11.1493L11.4923 4.96035C12.0286 4.41017 12.3266 3.67084 12.3217 2.90251C12.3168 2.13418 12.0094 1.39872 11.466 0.855461C10.9227 0.312198 10.1872 0.00487157 9.41884 5.74181e-05C8.65051 -0.00475674 7.91122 0.293329 7.36111 0.829741L1.19791 7.01806C0.430902 7.78507 -1.14293e-08 8.82536 0 9.91008C1.14293e-08 10.9948 0.430902 12.0351 1.19791 12.8021C1.96492 13.5691 3.00521 14 4.08993 14C5.17464 14 6.21493 13.5691 6.98194 12.8021L13.3455 6.41279C13.4001 6.35849 13.4434 6.29395 13.473 6.22286C13.5026 6.15177 13.5178 6.07554 13.5178 5.99856C13.5178 5.92157 13.5026 5.84534 13.473 5.77425C13.4434 5.70316 13.4001 5.63862 13.3455 5.58433Z" fill="#4B7FE3"/>
</svg>
