<svg width="17" height="13" viewBox="0 0 17 13" fill="none" xmlns="http://www.w3.org/2000/svg">
<path d="M1.54133 4.00712C1.74447 4.15481 2.35681 4.59346 3.37839 5.32284C4.4 6.05222 5.18262 6.61382 5.72629 7.00768C5.78602 7.05085 5.91292 7.1447 6.10705 7.28935C6.30122 7.4341 6.46255 7.55107 6.59093 7.6403C6.7194 7.72949 6.8747 7.82954 7.057 7.94031C7.23924 8.05097 7.41103 8.13421 7.57233 8.18932C7.73366 8.24488 7.883 8.2724 8.02039 8.2724H8.03844C8.17582 8.2724 8.32522 8.24484 8.48656 8.18932C8.6478 8.13421 8.81974 8.05087 9.00182 7.94031C9.18399 7.82941 9.3393 7.72946 9.46777 7.6403C9.59624 7.55107 9.75745 7.4341 9.95168 7.28935C10.1458 7.14457 10.2728 7.05085 10.3326 7.00768C10.8821 6.61382 12.2802 5.61353 14.5264 4.00692C14.9625 3.69314 15.3269 3.31451 15.6196 2.8713C15.9125 2.42829 16.0588 1.96354 16.0588 1.47732C16.0588 1.07101 15.9168 0.723201 15.633 0.433927C15.3492 0.144589 15.0131 0 14.6249 0H1.43376C0.973774 0 0.619783 0.160014 0.371851 0.480043C0.12395 0.800136 0 1.20024 0 1.68031C0 2.06809 0.164346 2.48831 0.492882 2.9407C0.821386 3.39313 1.17098 3.74863 1.54133 4.00712Z" fill="#8FB6FF"/>
<path d="M15.1625 4.99495C13.2032 6.36131 11.7154 7.4232 10.6999 8.18039C10.3594 8.43882 10.0832 8.64055 9.87101 8.7851C9.65886 8.92976 9.37671 9.07748 9.02417 9.22822C8.67175 9.37917 8.3433 9.45443 8.03856 9.45443H8.02042C7.71574 9.45443 7.38711 9.37917 7.03469 9.22822C6.68226 9.07748 6.39993 8.92976 6.18784 8.7851C5.97582 8.64055 5.69948 8.43882 5.35899 8.18039C4.55242 7.57106 3.06784 6.5091 0.905191 4.99495C0.564572 4.7612 0.262872 4.49327 0 4.19171V11.5225C0 11.929 0.140335 12.2766 0.421161 12.5659C0.701924 12.8553 1.03953 13 1.43386 13H14.6251C15.0193 13 15.3569 12.8553 15.6377 12.5659C15.9186 12.2765 16.0588 11.9291 16.0588 11.5225V4.19171C15.8019 4.48703 15.5033 4.75496 15.1625 4.99495Z" fill="#8FB6FF"/>
</svg>
