<svg width="9" height="5" viewBox="0 0 9 5" fill="none" xmlns="http://www.w3.org/2000/svg">
<path d="M3.68963 2.7923C3.79979 2.89979 3.94919 2.96018 4.10496 2.96018C4.26073 2.96018 4.41013 2.89979 4.52029 2.7923L7.21439 0.163264C7.32518 0.058815 7.47358 0.00101997 7.62761 0.00232602C7.78164 0.00363255 7.92898 0.0639367 8.0379 0.170249C8.14682 0.276562 8.2086 0.420377 8.20994 0.57072C8.21128 0.721064 8.15206 0.865906 8.04505 0.97405L5.35096 3.60136C5.02047 3.92385 4.57228 4.10501 4.10496 4.10501C3.63764 4.10501 3.18945 3.92385 2.85896 3.60136L0.164867 0.971757C0.0578574 0.863613 -0.00135534 0.718771 -1.73458e-05 0.568427C0.00132161 0.418084 0.0631044 0.274269 0.172024 0.167956C0.280944 0.061643 0.428286 0.00133976 0.582316 3.32227e-05C0.736347 -0.00127332 0.88474 0.0565217 0.995536 0.160971L3.68963 2.7923Z" fill="#848484"/>
</svg>
