<svg width="17" height="9" viewBox="0 0 17 9" fill="none" xmlns="http://www.w3.org/2000/svg">
<path d="M16.3791 2.95424L13.6316 0.207385C13.4987 0.0745964 13.3186 0 13.1308 0C12.943 0 12.7628 0.0745964 12.63 0.207385C12.4972 0.340214 12.4226 0.520345 12.4226 0.708166C12.4226 0.895986 12.4972 1.07612 12.63 1.20895L15.1481 3.72843H0.708317C0.52046 3.72843 0.340296 3.80306 0.207461 3.93589C0.074626 4.06873 0 4.24889 0 4.43675H0C0 4.6246 0.074626 4.80477 0.207461 4.9376C0.340296 5.07044 0.52046 5.14506 0.708317 5.14506H15.1913L12.63 7.70563C12.5641 7.77141 12.5119 7.84953 12.4763 7.93552C12.4406 8.02151 12.4223 8.11368 12.4223 8.20676C12.4223 8.29985 12.4406 8.39202 12.4763 8.47801C12.5119 8.56399 12.5641 8.64211 12.63 8.7079C12.7628 8.84069 12.943 8.91528 13.1308 8.91528C13.3186 8.91528 13.4987 8.84069 13.6316 8.7079L16.3798 5.96034C16.7772 5.56096 17.0001 5.02049 17 4.45714C16.9999 3.89379 16.7766 3.35342 16.3791 2.95424Z" fill="white"/>
</svg>
