<svg width="9" height="18" viewBox="0 0 9 18" fill="none" xmlns="http://www.w3.org/2000/svg">
<path d="M2.75175 9.47563C2.52641 9.2447 2.39982 8.93153 2.39982 8.605C2.39982 8.27846 2.52641 7.9653 2.75175 7.73437L8.26278 2.08695C8.48173 1.85469 8.60289 1.54363 8.60015 1.22075C8.59741 0.897865 8.471 0.589003 8.24814 0.360683C8.02529 0.132363 7.72382 0.00285231 7.40866 4.65517e-05C7.09351 -0.0027592 6.78989 0.121364 6.5632 0.345682L1.05576 5.9931C0.379759 6.68589 0 7.62539 0 8.605C0 9.58461 0.379759 10.5241 1.05576 11.2169L6.568 16.8643C6.7947 17.0886 7.09832 17.2128 7.41347 17.21C7.72863 17.2071 8.0301 17.0776 8.25295 16.8493C8.47581 16.621 8.60222 16.3121 8.60495 15.9893C8.60769 15.6664 8.48654 15.3553 8.26759 15.123L2.75175 9.47563Z" fill="white"/>
</svg>
