<svg width="180" height="38" viewBox="0 0 180 38" fill="none" xmlns="http://www.w3.org/2000/svg">
<path d="M40.9562 29.026C41.5936 28.3511 42.4608 28.0137 43.5576 28.0137C44.6544 28.0137 45.5074 28.3374 46.1168 28.985C46.7261 29.6325 47.0308 30.5399 47.0308 31.7072C47.0308 32.902 46.7261 33.8322 46.1168 34.4979C45.5074 35.1637 44.6497 35.4966 43.5435 35.4966C42.4373 35.4966 41.5702 35.1683 40.9421 34.5116C40.314 33.855 40 32.943 40 31.7756C40 30.6174 40.3187 29.7009 40.9562 29.026ZM45.1887 29.7373C44.7856 29.2357 44.2325 28.985 43.5294 28.985C42.8264 28.985 42.2686 29.2357 41.8561 29.7373C41.4437 30.2389 41.2374 30.9093 41.2374 31.7483C41.2374 32.6147 41.439 33.2941 41.8421 33.7866C42.2545 34.2699 42.8264 34.5116 43.5576 34.5116C44.2606 34.5116 44.809 34.2654 45.2028 33.7729C45.6059 33.2804 45.8074 32.601 45.8074 31.7346C45.8074 30.8956 45.6012 30.2298 45.1887 29.7373Z" fill="#4A4A4A"/>
<path d="M49.579 28.2189V29.2175C50.1039 28.4058 50.9195 28 52.0257 28C53.0381 28 53.8396 28.3329 54.4302 28.9986C55.0302 29.6644 55.3301 30.5673 55.3301 31.7072C55.3301 32.8472 55.0349 33.7592 54.4443 34.4432C53.8631 35.1181 53.0756 35.4555 52.0819 35.4555C51.0414 35.4555 50.2305 35.0679 49.6493 34.2927V38H48.4541V28.2189H49.579ZM51.8429 28.9713C51.1492 28.9713 50.6008 29.2175 50.1977 29.71C49.804 30.1933 49.6071 30.8637 49.6071 31.7209C49.6071 32.5782 49.8087 33.2531 50.2117 33.7456C50.6242 34.2289 51.182 34.4706 51.8851 34.4706C52.5694 34.4706 53.1084 34.2243 53.5021 33.7319C53.8959 33.2394 54.0927 32.5691 54.0927 31.7209C54.0927 30.8637 53.8912 30.1933 53.4881 29.71C53.0944 29.2175 52.546 28.9713 51.8429 28.9713Z" fill="#4A4A4A"/>
<path d="M62.0965 29.2449H59.4951V35.2777H58.2999V29.2449H55.6985V28.2189H62.0965V29.2449Z" fill="#4A4A4A"/>
<path d="M63.3805 29.026C64.0179 28.3511 64.8851 28.0137 65.9819 28.0137C67.0787 28.0137 67.9317 28.3374 68.5411 28.985C69.1504 29.6325 69.4551 30.5399 69.4551 31.7072C69.4551 32.902 69.1504 33.8322 68.5411 34.4979C67.9317 35.1637 67.074 35.4966 65.9678 35.4966C64.8616 35.4966 63.9945 35.1683 63.3664 34.5116C62.7383 33.855 62.4243 32.943 62.4243 31.7756C62.4243 30.6174 62.743 29.7009 63.3805 29.026ZM67.613 29.7373C67.2099 29.2357 66.6568 28.985 65.9537 28.985C65.2507 28.985 64.6929 29.2357 64.2804 29.7373C63.8679 30.2389 63.6617 30.9093 63.6617 31.7483C63.6617 32.6147 63.8633 33.2941 64.2664 33.7866C64.6788 34.2699 65.2507 34.5116 65.9819 34.5116C66.6849 34.5116 67.2333 34.2654 67.6271 33.7729C68.0302 33.2804 68.2317 32.601 68.2317 31.7346C68.2317 30.8956 68.0255 30.2298 67.613 29.7373Z" fill="#4A4A4A"/>
<path d="M72.0736 35.2777H70.8784V28.2189H76.8967V35.2777H75.7015V29.2449H72.0736V35.2777Z" fill="#4A4A4A"/>
<path d="M84.893 33.0479C84.5274 34.6895 83.4728 35.5103 81.7291 35.5103C80.6604 35.5103 79.8214 35.1865 79.2121 34.539C78.6122 33.8915 78.3122 32.9932 78.3122 31.844C78.3122 30.7041 78.6215 29.7829 79.2402 29.0807C79.8683 28.3694 80.6839 28.0137 81.6869 28.0137C82.8025 28.0137 83.6274 28.383 84.1618 29.1218C84.7055 29.8513 84.9773 30.777 84.9773 31.8988V32.0629H79.5215L79.5074 32.145C79.5074 32.8928 79.709 33.4811 80.1121 33.9097C80.5151 34.3383 81.0682 34.5527 81.7713 34.5527C82.2963 34.5527 82.7087 34.4341 83.0087 34.197C83.3181 33.9599 83.5571 33.5768 83.7259 33.0479H84.893ZM83.7399 31.119C83.6837 30.4441 83.4728 29.9197 83.1072 29.5458C82.7416 29.1628 82.2588 28.9713 81.6588 28.9713C81.0776 28.9713 80.5948 29.1628 80.2105 29.5458C79.8261 29.9289 79.5965 30.4533 79.5215 31.119H83.7399Z" fill="#4A4A4A"/>
<path d="M93.028 37.5212H91.889V35.2777H86.3488V37.5212H85.2098V34.2517H85.9972C86.2222 33.8322 86.4285 33.1847 86.6159 32.3092C86.8128 31.4245 86.9112 30.5627 86.9112 29.7237V28.2189H92.0859V34.2517H93.028V37.5212ZM90.8907 34.2517V29.2449H88.0783V29.8331C88.0783 30.663 87.9893 31.5066 87.8112 32.3639C87.6424 33.212 87.4503 33.8413 87.2347 34.2517H90.8907Z" fill="#4A4A4A"/>
<path d="M103.54 29.2449H100.938V35.2777H99.7429V29.2449H97.1416V28.2189H103.54V29.2449Z" fill="#4A4A4A"/>
<path d="M105.619 28.2189V29.2175C106.144 28.4058 106.96 28 108.066 28C109.078 28 109.88 28.3329 110.47 28.9986C111.07 29.6644 111.37 30.5673 111.37 31.7072C111.37 32.8472 111.075 33.7592 110.484 34.4432C109.903 35.1181 109.116 35.4555 108.122 35.4555C107.082 35.4555 106.271 35.0679 105.689 34.2927V38H104.494V28.2189H105.619ZM107.883 28.9713C107.189 28.9713 106.641 29.2175 106.238 29.71C105.844 30.1933 105.647 30.8637 105.647 31.7209C105.647 32.5782 105.849 33.2531 106.252 33.7456C106.664 34.2289 107.222 34.4706 107.925 34.4706C108.61 34.4706 109.149 34.2243 109.542 33.7319C109.936 33.2394 110.133 32.5691 110.133 31.7209C110.133 30.8637 109.931 30.1933 109.528 29.71C109.134 29.2175 108.586 28.9713 107.883 28.9713Z" fill="#4A4A4A"/>
<path d="M119.256 34.3475V35.2503C119.012 35.3415 118.74 35.3871 118.44 35.3871C117.756 35.3871 117.404 35.0406 117.385 34.3475C116.701 35.0953 115.825 35.4692 114.756 35.4692C114.043 35.4692 113.476 35.2914 113.054 34.9357C112.642 34.58 112.436 34.0921 112.436 33.472C112.436 32.2134 113.294 31.4793 115.009 31.2695C115.122 31.2513 115.286 31.233 115.501 31.2148C116.317 31.1236 116.818 31.0187 117.006 30.9001C117.221 30.7542 117.329 30.5034 117.329 30.1477C117.329 29.3725 116.781 28.985 115.684 28.985C115.122 28.985 114.695 29.099 114.404 29.3269C114.114 29.5458 113.94 29.9106 113.884 30.4213H112.717C112.736 29.6644 113.012 29.0762 113.547 28.6566C114.081 28.2371 114.817 28.0274 115.754 28.0274C116.776 28.0274 117.535 28.2554 118.032 28.7114C118.192 28.8573 118.309 29.0488 118.384 29.2859C118.459 29.523 118.501 29.7191 118.51 29.8741C118.52 30.0201 118.524 30.2435 118.524 30.5445C118.524 30.891 118.515 31.4154 118.496 32.1176C118.478 32.8199 118.468 33.3443 118.468 33.6908C118.468 33.9462 118.501 34.1286 118.567 34.238C118.642 34.3383 118.773 34.3885 118.96 34.3885C119.035 34.3885 119.134 34.3748 119.256 34.3475ZM117.329 31.6115C117.245 31.6753 117.156 31.73 117.062 31.7756C116.968 31.8212 116.846 31.8577 116.696 31.8851C116.556 31.9124 116.457 31.9352 116.401 31.9535C116.354 31.9626 116.232 31.9808 116.036 32.0082C115.839 32.0264 115.736 32.0356 115.726 32.0356C115.436 32.072 115.243 32.0994 115.15 32.1176C115.065 32.1268 114.897 32.1632 114.643 32.2271C114.4 32.2909 114.226 32.3639 114.123 32.446C114.02 32.528 113.917 32.6512 113.814 32.8153C113.72 32.9704 113.673 33.1573 113.673 33.3762C113.673 33.741 113.8 34.0283 114.053 34.238C114.315 34.4478 114.672 34.5527 115.122 34.5527C115.693 34.5527 116.204 34.3885 116.654 34.0602C117.104 33.7319 117.329 33.3443 117.329 32.8974V31.6115Z" fill="#4A4A4A"/>
<path d="M120.354 35.2777V28.2189H123.715C124.193 28.2189 124.601 28.2599 124.938 28.342C125.275 28.415 125.571 28.5837 125.824 28.8482C126.077 29.1126 126.204 29.4729 126.204 29.9289C126.204 30.622 125.847 31.1281 125.135 31.4473V31.461C125.566 31.5431 125.904 31.7392 126.147 32.0492C126.391 32.3502 126.513 32.7332 126.513 33.1984C126.513 33.8003 126.307 34.2973 125.894 34.6895C125.482 35.0816 124.952 35.2777 124.305 35.2777H120.354ZM123.588 31.0643C124.085 31.0643 124.436 30.9868 124.643 30.8317C124.858 30.6676 124.966 30.4305 124.966 30.1204C124.966 29.8103 124.863 29.5823 124.657 29.4364C124.451 29.2905 124.094 29.2175 123.588 29.2175H121.521V31.0643H123.588ZM121.521 32.0492V34.2791H124.08C124.455 34.2791 124.746 34.1696 124.952 33.9508C125.168 33.7319 125.275 33.4492 125.275 33.1026C125.275 32.4004 124.807 32.0492 123.869 32.0492H121.521Z" fill="#4A4A4A"/>
<path d="M135.795 35.2777H134.6V29.71H134.558L132.406 35.2777H131.309L129.158 29.71H129.116V35.2777H127.921V28.2189H129.636L131.844 33.9371H131.872L134.08 28.2189H135.795V35.2777Z" fill="#4A4A4A"/>
<path d="M143.987 34.3475V35.2503C143.743 35.3415 143.471 35.3871 143.171 35.3871C142.487 35.3871 142.135 35.0406 142.117 34.3475C141.432 35.0953 140.556 35.4692 139.487 35.4692C138.775 35.4692 138.208 35.2914 137.786 34.9357C137.373 34.58 137.167 34.0921 137.167 33.472C137.167 32.2134 138.025 31.4793 139.74 31.2695C139.853 31.2513 140.017 31.233 140.232 31.2148C141.048 31.1236 141.55 31.0187 141.737 30.9001C141.953 30.7542 142.06 30.5034 142.06 30.1477C142.06 29.3725 141.512 28.985 140.415 28.985C139.853 28.985 139.426 29.099 139.136 29.3269C138.845 29.5458 138.672 29.9106 138.615 30.4213H137.448C137.467 29.6644 137.744 29.0762 138.278 28.6566C138.812 28.2371 139.548 28.0274 140.486 28.0274C141.507 28.0274 142.267 28.2554 142.764 28.7114C142.923 28.8573 143.04 29.0488 143.115 29.2859C143.19 29.523 143.232 29.7191 143.242 29.8741C143.251 30.0201 143.256 30.2435 143.256 30.5445C143.256 30.891 143.246 31.4154 143.228 32.1176C143.209 32.8199 143.199 33.3443 143.199 33.6908C143.199 33.9462 143.232 34.1286 143.298 34.238C143.373 34.3383 143.504 34.3885 143.692 34.3885C143.767 34.3885 143.865 34.3748 143.987 34.3475ZM142.06 31.6115C141.976 31.6753 141.887 31.73 141.793 31.7756C141.7 31.8212 141.578 31.8577 141.428 31.8851C141.287 31.9124 141.189 31.9352 141.132 31.9535C141.086 31.9626 140.964 31.9808 140.767 32.0082C140.57 32.0264 140.467 32.0356 140.457 32.0356C140.167 32.072 139.975 32.0994 139.881 32.1176C139.797 32.1268 139.628 32.1632 139.375 32.2271C139.131 32.2909 138.958 32.3639 138.854 32.446C138.751 32.528 138.648 32.6512 138.545 32.8153C138.451 32.9704 138.404 33.1573 138.404 33.3762C138.404 33.741 138.531 34.0283 138.784 34.238C139.047 34.4478 139.403 34.5527 139.853 34.5527C140.425 34.5527 140.936 34.3885 141.386 34.0602C141.835 33.7319 142.06 33.3443 142.06 32.8974V31.6115Z" fill="#4A4A4A"/>
<path d="M150.668 29.2449H148.066V35.2777H146.871V29.2449H144.27V28.2189H150.668V29.2449Z" fill="#4A4A4A"/>
<path d="M151.952 29.026C152.589 28.3511 153.456 28.0137 154.553 28.0137C155.65 28.0137 156.503 28.3374 157.112 28.985C157.722 29.6325 158.026 30.5399 158.026 31.7072C158.026 32.902 157.722 33.8322 157.112 34.4979C156.503 35.1637 155.645 35.4966 154.539 35.4966C153.433 35.4966 152.566 35.1683 151.938 34.5116C151.31 33.855 150.995 32.943 150.995 31.7756C150.995 30.6174 151.314 29.7009 151.952 29.026ZM156.184 29.7373C155.781 29.2357 155.228 28.985 154.525 28.985C153.822 28.985 153.264 29.2357 152.852 29.7373C152.439 30.2389 152.233 30.9093 152.233 31.7483C152.233 32.6147 152.434 33.2941 152.838 33.7866C153.25 34.2699 153.822 34.5116 154.553 34.5116C155.256 34.5116 155.805 34.2654 156.198 33.7729C156.601 33.2804 156.803 32.601 156.803 31.7346C156.803 30.8956 156.597 30.2298 156.184 29.7373Z" fill="#4A4A4A"/>
<path d="M165.153 28.2189V35.2777H163.957V29.2449H161.37L161.272 32.3639C161.244 33.44 161.042 34.2198 160.667 34.7031C160.292 35.1865 159.823 35.4282 159.261 35.4282C158.914 35.4282 158.628 35.378 158.403 35.2777V34.3338C158.525 34.3976 158.736 34.4295 159.036 34.4295C159.317 34.4295 159.556 34.2836 159.753 33.9918C159.959 33.6908 160.072 33.1892 160.091 32.487L160.217 28.2189H165.153Z" fill="#4A4A4A"/>
<path d="M167.496 29.026C168.134 28.3511 169.001 28.0137 170.098 28.0137C171.194 28.0137 172.047 28.3374 172.657 28.985C173.266 29.6325 173.571 30.5399 173.571 31.7072C173.571 32.902 173.266 33.8322 172.657 34.4979C172.047 35.1637 171.19 35.4966 170.084 35.4966C168.977 35.4966 168.11 35.1683 167.482 34.5116C166.854 33.855 166.54 32.943 166.54 31.7756C166.54 30.6174 166.859 29.7009 167.496 29.026ZM171.729 29.7373C171.326 29.2357 170.773 28.985 170.069 28.985C169.366 28.985 168.809 29.2357 168.396 29.7373C167.984 30.2389 167.777 30.9093 167.777 31.7483C167.777 32.6147 167.979 33.2941 168.382 33.7866C168.795 34.2699 169.366 34.5116 170.098 34.5116C170.801 34.5116 171.349 34.2654 171.743 33.7729C172.146 33.2804 172.347 32.601 172.347 31.7346C172.347 30.8956 172.141 30.2298 171.729 29.7373Z" fill="#4A4A4A"/>
<path d="M180 29.2449H176.217V35.2777H175.022V28.2189H180V29.2449Z" fill="#4A4A4A"/>
<path d="M31.9969 33.9161C31.9316 33.5155 31.6052 33.5823 31.6052 33.5823C31.6052 33.5823 30.5608 33.6491 29.9081 33.2485C29.2553 32.8479 28.6026 32.3138 28.3415 32.1135C28.2762 31.9132 28.211 31.7797 28.0804 31.7129C27.8846 31.112 27.4929 31.0453 27.4929 31.0453C27.1527 30.5798 26.8473 30.0888 26.5791 29.5765C26.1222 28.7085 25.9263 28.6418 25.6652 28.3079C25.6 28.0409 24.425 25.0365 24.2292 24.5692C24.1639 23.9683 24.0334 23.6345 23.9028 23.0336C23.8376 21.6315 22.989 21.3645 22.989 21.3645C22.989 21.3645 21.9446 20.7636 21.6835 20.4298C21.5413 20.2402 21.3638 20.0814 21.1613 19.9624C21.1613 19.9624 21.096 19.6954 20.6391 18.6939C20.1822 17.6925 20.1169 16.9581 19.9864 16.4907C19.8558 16.0234 19.66 15.556 19.66 15.2222C19.66 14.8884 19.7905 14.6881 19.8558 14.2207C20.2475 13.6866 20.4433 12.6852 20.6391 12.0843C20.8349 11.4834 20.9002 10.4152 20.9002 9.94784C20.9002 9.48049 20.9655 9.48049 20.9655 9.48049C20.9655 9.48049 21.096 9.88107 21.2919 9.88107C22.7279 9.74754 23.4459 9.14667 23.6417 9.01314C23.8376 8.87961 23.9681 8.94638 23.9681 8.94638C24.2292 8.74608 25.0125 8.07844 25.0125 8.07844C25.9916 8.07844 25.9263 6.74316 25.9263 6.74316C25.9263 6.74316 25.7958 3.93908 24.2292 3.80555C22.6626 3.67202 21.8141 5.0073 21.2266 5.67494C20.6391 6.34258 20.2475 6.27582 20.0516 6.27582C18.8114 4.67348 18.0934 4.40642 17.2448 4.33966C16.6574 4.00584 15.2866 3.80555 15.2866 3.80555C15.2866 3.80555 13.0673 3.27144 12.6756 3.13791C12.284 3.00438 11.6965 2.67056 11.0438 2.47027C10.391 2.26998 9.80354 2.06968 8.6286 2.06968C7.45365 2.06968 6.53981 1.73586 6.01762 1.6691C5.49542 1.60234 5.56069 1.53557 5.2996 1.40204C4.90795 0.534112 4.32048 0 3.66773 0C3.01499 0 3.08026 0.934696 3.21081 1.46881C3.34136 2.00292 4.05938 2.20321 4.05938 2.20321C4.05938 2.20321 4.58158 2.67056 5.10377 2.73732C5.62597 2.80409 6.86618 3.13791 7.38838 3.27144C7.91058 3.40496 7.71475 3.53849 9.67299 4.13937C11.6312 4.74024 14.7644 6.07552 14.9602 6.20905C15.0162 6.2451 15.063 6.29409 15.0971 6.35208C15.1311 6.41007 15.1513 6.47542 15.156 6.54287C15.156 6.54287 14.8297 6.87669 13.72 8.3455C12.6103 9.81431 12.3492 11.0161 12.2187 11.4166C12.0881 11.8172 10.7827 14.154 10.5216 14.8216C10.2605 15.4892 10.391 15.556 10.4563 15.6895C10.5216 15.8231 10.7174 16.0234 10.6521 16.1569C10.5868 16.2904 10.391 16.7578 10.391 16.7578C9.80354 18.6272 9.93409 18.8942 10.0646 19.4951C10.1952 20.096 11.2396 21.5648 11.5007 22.0321C11.827 23.3006 13.002 25.2368 13.1325 25.4371C13.2631 25.6374 13.0673 25.7041 12.9367 25.7709C12.8062 25.8377 12.7409 25.6374 12.4798 25.5706L11.4354 25.3036C10.9132 25.17 10.3257 25.2368 9.93409 25.2368C9.54244 25.2368 8.56332 25.17 8.23695 25.17C7.91058 25.17 7.78003 24.9697 7.32311 24.903C6.86618 24.8362 6.80091 24.9697 6.60509 24.9697C6.40926 24.9697 6.21344 24.8362 5.95234 24.7694C5.69124 24.7027 5.23432 24.6359 5.0385 24.5692C4.84267 24.5024 4.5163 24.1686 4.38575 24.1686C4.2552 24.1686 3.99411 23.9015 3.99411 23.9015C3.99411 23.9015 3.66773 23.5677 3.34136 23.5009C3.01499 23.4342 2.68862 23.768 2.42752 24.035C2.16642 24.3021 1.31785 25.6374 0.730379 26.4385C0.142909 27.2397 0.0123597 28.2412 0.0123597 28.2412C0.0123597 28.2412 -0.118189 29.977 0.469281 30.2441C1.05675 30.5112 1.1873 29.9103 1.1873 29.9103C1.1873 29.9103 1.51367 29.3762 1.57895 29.1759C1.58944 29.1349 1.60839 29.0966 1.6345 29.0637C1.66062 29.0307 1.69331 29.0039 1.73039 28.9849C1.76747 28.966 1.80808 28.9553 1.8495 28.9537C1.89093 28.9521 1.93221 28.9596 1.9706 28.9756C2.10114 29.0423 2.29697 28.8421 2.62334 28.5082C2.94971 28.1744 3.47191 27.9074 3.60246 27.7738C3.6627 27.7161 3.73887 27.6787 3.82062 27.6667C3.90237 27.6548 3.98573 27.6689 4.05938 27.7071C4.18993 27.7738 4.32048 27.6403 4.45103 27.7071C4.58158 27.7738 4.90795 27.8406 4.97322 27.7071C5.0385 27.5735 5.23432 27.6403 5.69124 27.5735C6.67036 27.5735 9.41189 27.9741 9.93409 28.0409C10.4563 28.1076 11.9576 28.5082 12.6756 28.7753C13.3936 29.0423 13.72 29.2426 14.5033 29.3762C15.2866 29.5097 15.5477 29.4429 16.2004 28.7753C16.8532 28.1076 16.5268 26.1047 16.3963 24.9697C16.3184 24.3049 16.2748 23.6363 16.2657 22.9668C16.2657 22.9668 16.2657 22.3659 16.3963 22.4995C16.5268 22.633 16.8532 22.633 17.1143 22.633C17.3754 22.633 19.7905 23.2339 20.3127 23.3674C20.8349 23.5009 21.1613 24.035 21.2266 24.1018C21.2919 24.1686 21.8141 25.5038 21.9446 25.9044C22.1878 26.5996 22.4938 27.2701 22.8584 27.9074C23.3154 28.7085 24.0987 30.3776 24.2945 30.845C24.4903 31.3123 24.7514 31.3791 24.8167 31.4458C24.882 31.5126 24.7514 31.5794 24.882 31.98C25.0125 32.3805 24.9472 32.6476 24.9472 32.6476C24.9472 32.6476 24.9472 32.9147 24.882 33.5823C24.8167 34.2499 25.4042 34.3167 25.4042 34.3167C25.4042 34.3167 26.1222 34.6505 28.0804 34.9176C30.0386 35.1846 31.083 34.7173 31.083 34.7173C31.083 34.7173 32.0621 34.3167 31.9969 33.9161ZM19.4642 19.5619C19.3989 19.4283 19.2031 19.2948 18.942 19.228C18.6809 19.1613 17.9629 19.0277 17.5712 18.8942C17.1796 18.7607 16.7879 18.6272 16.6574 18.5604C16.5268 18.4936 16.5268 18.2266 16.5268 18.0263C16.5268 17.826 16.2657 17.5589 16.2004 17.4254C16.1352 17.2919 16.1352 17.0916 16.331 17.0916C16.5268 17.0916 16.5921 16.8913 16.7879 16.5575C16.9837 16.2237 17.3754 15.7563 17.4407 15.556C17.5059 15.3557 17.8323 15.289 17.9629 15.2222C18.0934 15.1554 18.0934 14.5546 18.0934 14.5546C18.0934 14.5546 18.1587 15.0219 18.0934 15.3557C18.0281 15.6895 18.0934 15.8231 18.1587 16.0901C18.224 16.3572 18.6156 17.2919 18.8767 17.8928C19.1378 18.4936 19.9864 19.7621 19.9864 19.7621C19.66 19.6954 19.5294 19.6954 19.4642 19.5619Z" fill="black"/>
<path d="M40 0H48.4167C54.046 0 56.8606 2.20403 56.8606 6.6121C56.8606 8.66804 56.1909 10.2274 54.8515 11.2902C53.5301 12.3356 51.7744 12.8583 49.5842 12.8583H45.8917V18.608H40V0ZM45.8917 4.57359V8.51994H48.7425C50.3716 8.51994 51.1861 7.86657 51.1861 6.55983C51.1861 5.23567 50.3354 4.57359 48.6339 4.57359H45.8917Z" fill="url(#paint0_linear)"/>
<path d="M69.6243 4.99175V9.51307C68.864 9.26914 68.2034 9.14718 67.6422 9.14718C66.5562 9.14718 65.7236 9.44337 65.1444 10.0358C64.5833 10.6107 64.3027 11.4296 64.3027 12.4924V18.608H58.954V5.12242H64.0855L64.0583 7.2132C64.5652 6.37689 65.1444 5.75837 65.796 5.35763C66.4476 4.9569 67.2621 4.75653 68.2396 4.75653C68.674 4.75653 69.1355 4.83494 69.6243 4.99175Z" fill="url(#paint1_linear)"/>
<path d="M85.7338 5.12242V18.608H80.5208V16.8831C79.5977 18.2944 78.1678 19 76.231 19C72.8281 19 71.1267 17.1531 71.1267 13.4594V5.12242H76.5568V12.8845C76.5568 14.1041 77.1632 14.7139 78.3759 14.7139C79.1904 14.7139 79.7244 14.47 79.9778 13.9821C80.2312 13.4943 80.3579 12.8235 80.3579 11.9697V5.12242H85.7338Z" fill="url(#paint2_linear)"/>
<path d="M103.312 0V18.608H98.1807V17.1444C97.2214 18.3466 95.9182 18.9477 94.271 18.9477C92.3885 18.9477 90.8772 18.2944 89.7368 16.9876C88.6146 15.6809 88.0535 13.9386 88.0535 11.7607C88.0535 9.65245 88.5874 7.9624 89.6554 6.69051C90.7414 5.41861 92.1804 4.78267 93.9723 4.78267C95.5652 4.78267 96.8956 5.38377 97.9635 6.58597V0H103.312ZM95.7914 8.72902C94.2348 8.72902 93.4565 9.7657 93.4565 11.8391C93.4565 13.8427 94.2348 14.8446 95.7914 14.8446C96.5517 14.8446 97.1309 14.5832 97.5291 14.0605C97.9454 13.5378 98.1536 12.7886 98.1536 11.8129C98.1536 10.8198 97.9454 10.0619 97.5291 9.5392C97.1309 8.99908 96.5517 8.72902 95.7914 8.72902Z" fill="url(#paint3_linear)"/>
<path d="M111.469 5.12242V6.79505C112.61 5.43604 114.094 4.75653 115.922 4.75653C117.696 4.75653 118.981 5.24438 119.777 6.22008C120.574 7.19578 120.972 8.4851 120.972 10.088V18.608H115.569V11.055C115.569 9.62632 114.963 8.91197 113.75 8.91197C112.374 8.91197 111.687 9.66988 111.687 11.1857V18.608H106.311V5.12242H111.469Z" fill="url(#paint4_linear)"/>
<path d="M129.374 0V3.6066H123.998V0H129.374ZM129.374 5.12242V18.608H123.998V5.12242H129.374Z" fill="url(#paint5_linear)"/>
<path d="M147.142 5.12242L142.173 10.2187L147.956 18.608H141.603L138.671 13.6685L137.748 14.5571V18.608H132.426V0H137.748V0.0784034V0.156808V0.235213V0.313617V0.392022V0.470427V0.54883V0.627235V0.705638V0.784043V0.862448V0.940852V1.01926V1.09766V1.17606V1.25447V1.33287V1.41128V1.48968V1.56809V1.64649V1.7249V1.8033V1.8817V1.96011V2.03851V2.11692V2.19532V2.27373V2.35213V2.43054V2.50894V2.58734V2.66575V2.74415V2.82256V2.90096V2.97937V3.05777V3.13618V3.21458V3.29298V3.37139V3.44979V3.5282V3.6066V3.68501V3.76341V3.84182V3.92022V3.99862V4.07703V4.15543V4.23384V4.31224V4.39065V4.46905V4.54745V4.62586V4.70426V4.78267V4.86107V4.93948V5.01788V5.09629V5.17469V5.25309V5.3315V5.4099V5.48831V5.56671V5.64512V5.72352V5.80193V5.88033V5.95873V6.03714V6.11554V6.19395V6.27235V6.35076V6.42916V6.50756V6.58597V6.66437V6.74278V6.82118V6.89959V6.97799V7.0564V7.1348V7.2132V7.29161V7.37001V7.44842V7.52682V7.60523V7.68363V7.76203V7.84044V7.89271V7.97111V8.20633L137.666 9.25172C138.01 8.76387 138.354 8.31958 138.698 7.91884L141.142 5.12242H147.142Z" fill="url(#paint6_linear)"/>
<path d="M156.192 4.7304C158.455 4.7304 160.292 5.38377 161.704 6.69051C163.115 7.99725 163.821 9.70472 163.821 11.8129C163.821 13.9386 163.106 15.6722 161.676 17.0138C160.246 18.3379 158.4 19 156.138 19C153.857 19 152.002 18.3379 150.572 17.0138C149.142 15.6896 148.427 13.9734 148.427 11.8652C148.427 9.75699 149.142 8.04081 150.572 6.71664C152.02 5.39248 153.893 4.7304 156.192 4.7304ZM156.083 8.46767C154.563 8.46767 153.803 9.60018 153.803 11.8652C153.803 14.1476 154.581 15.2889 156.138 15.2889C157.676 15.2889 158.445 14.1302 158.445 11.8129C158.445 9.58276 157.658 8.46767 156.083 8.46767Z" fill="url(#paint7_linear)"/>
<path d="M180 5.12242L175.412 18.608H169.113L164.443 5.12242H170.117L171.23 9.09491C171.737 10.9243 172.09 12.5795 172.289 14.0605C172.416 12.8932 172.76 11.3425 173.321 9.40853L174.57 5.12242H180Z" fill="url(#paint8_linear)"/>
<defs>
<linearGradient id="paint0_linear" x1="40" y1="0" x2="157.468" y2="61.8163" gradientUnits="userSpaceOnUse">
<stop stop-color="#3C67BA"/>
<stop offset="1" stop-color="#4B7FE3"/>
</linearGradient>
<linearGradient id="paint1_linear" x1="40" y1="0" x2="157.468" y2="61.8163" gradientUnits="userSpaceOnUse">
<stop stop-color="#3C67BA"/>
<stop offset="1" stop-color="#4B7FE3"/>
</linearGradient>
<linearGradient id="paint2_linear" x1="40" y1="0" x2="157.468" y2="61.8163" gradientUnits="userSpaceOnUse">
<stop stop-color="#3C67BA"/>
<stop offset="1" stop-color="#4B7FE3"/>
</linearGradient>
<linearGradient id="paint3_linear" x1="40" y1="0" x2="157.468" y2="61.8163" gradientUnits="userSpaceOnUse">
<stop stop-color="#3C67BA"/>
<stop offset="1" stop-color="#4B7FE3"/>
</linearGradient>
<linearGradient id="paint4_linear" x1="40" y1="0" x2="157.468" y2="61.8163" gradientUnits="userSpaceOnUse">
<stop stop-color="#3C67BA"/>
<stop offset="1" stop-color="#4B7FE3"/>
</linearGradient>
<linearGradient id="paint5_linear" x1="40" y1="0" x2="157.468" y2="61.8163" gradientUnits="userSpaceOnUse">
<stop stop-color="#3C67BA"/>
<stop offset="1" stop-color="#4B7FE3"/>
</linearGradient>
<linearGradient id="paint6_linear" x1="40" y1="0" x2="157.468" y2="61.8163" gradientUnits="userSpaceOnUse">
<stop stop-color="#3C67BA"/>
<stop offset="1" stop-color="#4B7FE3"/>
</linearGradient>
<linearGradient id="paint7_linear" x1="40" y1="0" x2="157.468" y2="61.8163" gradientUnits="userSpaceOnUse">
<stop stop-color="#3C67BA"/>
<stop offset="1" stop-color="#4B7FE3"/>
</linearGradient>
<linearGradient id="paint8_linear" x1="40" y1="0" x2="157.468" y2="61.8163" gradientUnits="userSpaceOnUse">
<stop stop-color="#3C67BA"/>
<stop offset="1" stop-color="#4B7FE3"/>
</linearGradient>
</defs>
</svg>
