<svg width="18" height="17" viewBox="0 0 18 17" fill="none" xmlns="http://www.w3.org/2000/svg">
<path d="M16.3418 15.496L16.3595 15.477C16.7955 14.989 17.0258 14.3512 17.0022 13.6973C16.9785 13.0434 16.7029 12.4239 16.2328 11.9687C15.3054 11.0742 14.5275 10.5572 13.7863 10.3431C12.7651 10.0479 11.8199 10.3165 10.9748 11.1413L10.0778 12.0282C9.03919 11.4312 8.08548 10.6974 7.24225 9.84644L7.19791 9.80209L7.15356 9.75901C6.30081 8.91692 5.5645 7.96457 4.9642 6.92728L5.85109 6.02898C6.67591 5.1839 6.94451 4.23872 6.6493 3.21752C6.43518 2.47633 5.91824 1.69713 5.02375 0.770956C4.56847 0.300941 3.94902 0.0252688 3.29509 0.00165246C2.64115 -0.0219639 2.00343 0.208307 1.51544 0.644256L1.49643 0.661994C1.48738 0.669358 1.47891 0.677406 1.47109 0.686067C0.50311 1.65785 -0.00875563 3.0224 0.00011333 4.63275C0.0140503 7.36439 1.52051 10.4875 4.01522 12.9873C6.515 15.4858 9.63814 16.9859 12.3672 16.9999C13.9751 17.0088 15.3396 16.4931 16.3152 15.5213C16.3247 15.5136 16.3336 15.5051 16.3418 15.496Z" fill="#8FB6FF"/>
</svg>
